<svg width="402" height="402" viewBox="0 0 402 402" fill="none" xmlns="http://www.w3.org/2000/svg">
<path d="M238.477 401.562C228.841 401.562 221.484 398.372 216.406 391.992C211.458 385.612 207.422 377.539 204.297 367.773L177.93 283.008C175.586 275.586 174.805 268.88 175.586 262.891C176.367 256.771 179.232 250.977 184.18 245.508L377.734 32.6172C379.036 31.1849 379.688 29.6224 379.688 27.9297C379.688 26.237 379.102 24.8047 377.93 23.6328C376.888 22.4609 375.456 21.875 373.633 21.875C371.94 21.875 370.378 22.526 368.945 23.8281L155.859 217.578C149.87 222.917 144.076 225.846 138.477 226.367C132.878 226.888 126.172 225.911 118.359 223.438L33.0078 196.875C23.3724 193.88 15.4297 189.909 9.17969 184.961C3.0599 180.013 0 172.721 0 163.086C0 154.883 2.73438 147.982 8.20312 142.383C13.6719 136.654 20.638 132.096 29.1016 128.711L354.883 4.29688C358.529 2.99479 362.044 1.95312 365.43 1.17188C368.945 0.390625 372.201 0 375.195 0C383.268 0 389.648 2.40885 394.336 7.22656C399.154 11.9141 401.562 18.2943 401.562 26.3672C401.562 29.362 401.172 32.5521 400.391 35.9375C399.74 39.3229 398.698 42.9688 397.266 46.875L273.047 371.875C269.531 380.859 264.909 388.021 259.18 393.359C253.581 398.828 246.68 401.562 238.477 401.562Z" fill="white"/>
</svg>
